<svg xmlns="http://www.w3.org/2000/svg" viewBox="0 0 900 700">
  <!-- Background -->
  <rect width="900" height="700" fill="#f9fafb" />
  
  <!-- Start -->
  <rect x="400" y="20" width="100" height="50" rx="5" fill="#d1fae5" stroke="#10b981" stroke-width="2" />
  <text x="450" y="50" font-family="Arial" font-size="14" text-anchor="middle" fill="#047857">Start</text>
  
  <!-- Upload CSV File -->
  <rect x="390" y="90" width="120" height="50" rx="5" fill="#fff" stroke="#6b7280" stroke-width="2" />
  <text x="450" y="120" font-family="Arial" font-size="14" text-anchor="middle" fill="#374151">Upload CSV</text>
  
  <!-- Initial Validation -->
  <rect x="300" y="160" width="300" height="70" rx="5" fill="#fff" stroke="#6b7280" stroke-width="2" />
  <text x="450" y="190" font-family="Arial" font-size="14" text-anchor="middle" fill="#374151">Initial Internal Validation</text>
  <text x="450" y="215" font-family="Arial" font-size="12" text-anchor="middle" fill="#6b7280">Headers, Formats, Internal ID Conflicts, Scales</text>
  
  <!-- Error Box -->
  <rect x="50" y="240" width="150" height="60" rx="5" fill="#fee2e2" stroke="#ef4444" stroke-width="2" />
  <text x="125" y="270" font-family="Arial" font-size="14" text-anchor="middle" fill="#b91c1c">Error: Stop Upload</text>
  
  <!-- Decision: Passed Validation? -->
  <polygon points="450,250 500,300 450,350 400,300" fill="#eff6ff" stroke="#3b82f6" stroke-width="2" />
  <text x="450" y="305" font-family="Arial" font-size="12" text-anchor="middle" fill="#1e40af">Validation Passed?</text>
  
  <!-- Decision: Existing Data? -->
  <polygon points="450,370 500,420 450,470 400,420" fill="#eff6ff" stroke="#3b82f6" stroke-width="2" />
  <text x="450" y="425" font-family="Arial" font-size="12" text-anchor="middle" fill="#1e40af">Existing Data?</text>
  
  <!-- Add/Replace Decision -->
  <rect x="600" y="390" width="150" height="60" rx="5" fill="#fff" stroke="#6b7280" stroke-width="2" />
  <text x="675" y="425" font-family="Arial" font-size="14" text-anchor="middle" fill="#374151">Add/Replace?</text>
  
  <!-- Delete Old Data (If Replace) -->
  <rect x="600" y="470" width="150" height="50" rx="5" fill="#fee2e2" stroke="#ef4444" stroke-width="2" />
  <text x="675" y="500" font-family="Arial" font-size="14" text-anchor="middle" fill="#b91c1c">Delete Previous Data</text>
  
  <!-- Full Validation -->
  <rect x="300" y="490" width="300" height="70" rx="5" fill="#fff" stroke="#6b7280" stroke-width="2" />
  <text x="450" y="520" font-family="Arial" font-size="14" text-anchor="middle" fill="#374151">Between Gates Validation</text>
  <text x="450" y="545" font-family="Arial" font-size="12" text-anchor="middle" fill="#6b7280">External Duplicates, Dates, Values</text>
  
  <!-- Import Data -->
  <rect x="400" y="580" width="100" height="50" rx="5" fill="#d1fae5" stroke="#10b981" stroke-width="2" />
  <text x="450" y="610" font-family="Arial" font-size="14" text-anchor="middle" fill="#047857">Import Data</text>
  
  <!-- Arrows -->
  <line x1="450" y1="70" x2="450" y2="90" stroke="#6b7280" stroke-width="2" />
  <line x1="450" y1="140" x2="450" y2="160" stroke="#6b7280" stroke-width="2" />
  <line x1="450" y1="230" x2="450" y2="250" stroke="#6b7280" stroke-width="2" />
  
  <line x1="450" y1="350" x2="450" y2="370" stroke="#6b7280" stroke-width="2" />
  <line x1="450" y1="470" x2="450" y2="490" stroke="#6b7280" stroke-width="2" />
  <line x1="450" y1="560" x2="450" y2="580" stroke="#6b7280" stroke-width="2" />
  
  <line x1="500" y1="420" x2="600" y2="420" stroke="#6b7280" stroke-width="2" />
  <line x1="675" y1="450" x2="675" y2="470" stroke="#6b7280" stroke-width="2" />
  <line x1="675" y1="520" x2="675" y2="525" stroke="#6b7280" stroke-width="2" />
  <line x1="675" y1="525" x2="450" y2="525" stroke="#6b7280" stroke-width="2" />
  
  <line x1="400" y1="300" x2="150" y2="270" stroke="#ef4444" stroke-width="2" />
  
  <!-- Add path -->
  <path d="M 400 420 H 300 V 525 H 300" stroke="#6b7280" stroke-width="2" fill="none" />
  
  <!-- Text for Add path -->
  <text x="350" y="405" font-family="Arial" font-size="12" text-anchor="middle" fill="#6b7280">No</text>
  <text x="480" y="405" font-family="Arial" font-size="12" text-anchor="middle" fill="#6b7280">Yes</text>
  <text x="510" y="320" font-family="Arial" font-size="12" text-anchor="middle" fill="#6b7280">Yes</text>
  <text x="400" y="320" font-family="Arial" font-size="12" text-anchor="middle" fill="#6b7280">No</text>
  <text x="625" y="405" font-family="Arial" font-size="12" text-anchor="middle" fill="#6b7280">Add</text>
  <text x="730" y="405" font-family="Arial" font-size="12" text-anchor="middle" fill="#6b7280">Replace</text>
</svg>